<svg width="19" height="17" viewBox="0 0 19 17" fill="none" xmlns="http://www.w3.org/2000/svg">
<path d="M13.461 0C12.5752 0 11.7284 0.20033 10.9445 0.595464C10.4109 0.864387 9.92062 1.22169 9.5 1.64561C9.07934 1.22169 8.58914 0.864387 8.05549 0.595464C7.27152 0.20033 6.42482 0 5.53891 0C2.48477 0 0 2.45107 0 5.46382C0 7.5977 1.14247 9.86405 3.39563 12.2C5.27691 14.1504 7.58018 15.7762 9.18107 16.7967L9.5 17L9.81893 16.7967C11.4198 15.7763 13.7231 14.1504 15.6044 12.2C17.8576 9.86405 19 7.5977 19 5.46382C19 2.45107 16.5152 0 13.461 0ZM14.753 11.4008C13.0716 13.1439 11.0236 14.6258 9.5 15.6175C7.97636 14.6257 5.92835 13.1439 4.24707 11.4008C2.20874 9.28772 1.17526 7.29021 1.17526 5.46382C1.17526 3.09032 3.13281 1.15932 5.53895 1.15932C6.92423 1.15932 8.19676 1.78701 9.03017 2.88141L9.5 3.49836L9.96983 2.88141C10.8032 1.78701 12.0758 1.15932 13.461 1.15932C15.8672 1.15932 17.8247 3.09032 17.8247 5.46382C17.8247 7.29021 16.7912 9.28772 14.753 11.4008Z" fill="#B9B9B9"/>
</svg>
