<svg width="16" height="16" viewBox="0 0 16 16" fill="none" xmlns="http://www.w3.org/2000/svg">
<path d="M7.04617 0C3.16102 0 0 3.16102 0 7.04617C0 10.9315 3.16102 14.0923 7.04617 14.0923C10.9315 14.0923 14.0923 10.9315 14.0923 7.04617C14.0923 3.16102 10.9315 0 7.04617 0ZM7.04617 12.7915C3.87821 12.7915 1.30083 10.2142 1.30083 7.0462C1.30083 3.87824 3.87821 1.30083 7.04617 1.30083C10.2141 1.30083 12.7915 3.87821 12.7915 7.04617C12.7915 10.2141 10.2141 12.7915 7.04617 12.7915Z" fill="#B9B9B9"/>
<path d="M15.8095 14.8898L12.0805 11.1608C11.8264 10.9067 11.4149 10.9067 11.1608 11.1608C10.9067 11.4147 10.9067 11.8266 11.1608 12.0805L14.8898 15.8095C15.0169 15.9366 15.1832 16.0001 15.3497 16.0001C15.516 16.0001 15.6825 15.9366 15.8095 15.8095C16.0636 15.5557 16.0636 15.1437 15.8095 14.8898Z" fill="#B9B9B9"/>
</svg>
